<svg xmlns="http://www.w3.org/2000/svg" viewBox="0 0 64 64">
  <path d="M 48.00 54.95 L 46.62 54.72 L 45.25 53.69 L 44.94 53.25 L 44.31 51.88 L 44.13 51.25 L 44.09 13.75 L 44.15 12.50 L 45.12 10.32 L 46.62 9.16 L 48.00 8.93 L 49.12 8.96 L 49.50 9.06 L 51.48 10.50 L 51.74 10.88 L 51.96 11.50 L 52.23 12.75 L 52.28 13.75 L 52.23 51.12 L 51.80 52.88 L 51.25 53.59 L 49.50 54.81 L 49.12 54.92 Z" fill="#004AF9"/>
  <path d="M 42.50 45.86 L 42.25 45.79 L 42.12 45.67 L 41.69 44.88 L 41.18 44.25 L 40.78 42.88 L 40.24 42.12 L 39.75 40.63 L 39.34 40.12 L 39.04 39.50 L 38.83 38.62 L 38.10 37.50 L 37.85 36.50 L 37.06 35.38 L 36.85 34.50 L 36.07 33.25 L 35.92 32.50 L 35.75 32.08 L 35.12 31.18 L 34.75 29.84 L 34.19 29.12 L 33.70 27.75 L 33.15 27.00 L 32.74 25.62 L 32.09 24.75 L 31.75 23.50 L 31.25 22.83 L 31.01 22.38 L 30.85 21.50 L 30.06 20.38 L 29.95 19.62 L 29.81 19.25 L 29.06 18.25 L 28.91 17.00 L 28.97 15.88 L 29.06 15.50 L 30.10 14.12 L 31.75 13.13 L 32.75 13.02 L 33.38 13.13 L 34.75 14.04 L 35.75 15.07 L 35.96 15.50 L 36.14 16.25 L 36.64 16.88 L 36.83 17.25 L 37.12 18.37 L 37.62 19.05 L 37.87 19.50 L 38.02 20.38 L 38.81 21.50 L 39.02 22.38 L 39.81 23.62 L 39.96 24.38 L 40.16 24.88 L 40.72 25.62 L 41.12 26.89 L 41.78 27.75 L 42.09 29.25 L 42.63 30.62 L 42.77 31.88 L 42.79 43.25 L 42.92 45.25 L 42.80 45.62 Z" fill="#004AF9"/>
  <path d="M 42.38 50.45 L 42.12 50.56 L 41.88 50.54 L 41.50 50.44 L 41.25 50.28 L 40.12 49.09 L 39.50 48.63 L 38.98 48.12 L 38.38 47.70 L 33.50 43.11 L 30.25 40.23 L 28.41 38.75 L 23.52 34.12 L 19.23 30.38 L 18.19 28.50 L 18.07 27.75 L 18.15 27.12 L 18.33 26.62 L 19.38 25.22 L 19.88 24.98 L 21.12 24.82 L 22.25 24.90 L 23.25 25.15 L 23.88 25.71 L 24.50 26.15 L 29.36 30.75 L 35.67 36.25 L 36.18 37.00 L 36.62 37.51 L 37.05 38.62 L 37.70 39.50 L 37.89 40.38 L 38.03 40.75 L 38.68 41.62 L 39.09 43.00 L 39.64 43.75 L 40.12 45.24 L 40.75 46.12 L 40.93 46.50 L 41.12 47.37 L 41.59 48.00 L 41.93 48.62 L 42.43 50.12 Z" fill="#004AF9"/>
  <path d="M 41.75 53.38 L 41.62 53.53 L 41.38 53.61 L 41.12 53.52 L 40.50 53.10 L 39.50 52.93 L 38.94 52.75 L 38.00 52.11 L 36.62 51.79 L 35.25 51.08 L 33.96 50.75 L 33.00 50.15 L 31.50 49.81 L 30.25 49.08 L 28.75 48.77 L 28.12 48.36 L 27.25 47.99 L 26.53 47.88 L 26.12 47.71 L 25.19 47.12 L 23.75 46.76 L 23.00 46.29 L 22.38 46.03 L 21.50 45.93 L 21.00 45.78 L 20.69 45.62 L 20.00 45.11 L 19.38 44.92 L 18.62 44.79 L 17.25 44.08 L 16.50 43.93 L 15.88 43.72 L 15.12 43.20 L 13.67 42.75 L 12.35 41.50 L 12.12 41.20 L 11.99 40.75 L 11.89 40.00 L 11.90 39.62 L 12.00 39.25 L 12.25 38.90 L 13.12 38.08 L 13.50 37.92 L 15.12 37.88 L 16.25 37.98 L 16.88 38.22 L 17.68 38.75 L 19.12 39.11 L 19.88 39.58 L 20.50 39.84 L 21.38 39.95 L 21.88 40.10 L 22.18 40.25 L 22.88 40.76 L 23.50 40.95 L 24.25 41.08 L 25.62 41.79 L 26.38 41.95 L 27.00 42.16 L 27.88 42.73 L 29.38 43.07 L 30.51 43.75 L 31.38 43.92 L 32.00 44.14 L 32.75 44.72 L 33.50 45.10 L 34.12 45.73 L 35.88 47.27 L 37.50 48.88 L 38.25 49.42 L 39.88 50.91 L 41.64 52.25 L 41.80 52.50 L 41.86 52.75 Z" fill="#004AF9"/>
</svg>
